<mxfile host="app.diagrams.net" modified="2023-07-07T08:04:06.788Z" agent="Mozilla/5.0 (Macintosh; Intel Mac OS X 10_15_7) AppleWebKit/537.36 (KHTML, like Gecko) Chrome/114.0.0.0 Safari/537.36" etag="SF20o7b5i6fDK203h8US" version="21.6.1" type="github">
  <diagram name="Page-1" id="2YBvvXClWsGukQMizWep">
    <mxGraphModel dx="794" dy="1163" grid="1" gridSize="10" guides="1" tooltips="1" connect="1" arrows="1" fold="1" page="1" pageScale="1" pageWidth="850" pageHeight="1100" math="0" shadow="0">
      <root>
        <mxCell id="0" />
        <mxCell id="1" parent="0" />
        <mxCell id="aM9ryv3xv72pqoxQDRHE-1" value="Browser" style="shape=umlLifeline;perimeter=lifelinePerimeter;whiteSpace=wrap;html=1;container=0;dropTarget=0;collapsible=0;recursiveResize=0;outlineConnect=0;portConstraint=eastwest;newEdgeStyle={&quot;edgeStyle&quot;:&quot;elbowEdgeStyle&quot;,&quot;elbow&quot;:&quot;vertical&quot;,&quot;curved&quot;:0,&quot;rounded&quot;:0};" parent="1" vertex="1">
          <mxGeometry x="30" y="40" width="150" height="900" as="geometry" />
        </mxCell>
        <mxCell id="aM9ryv3xv72pqoxQDRHE-2" value="" style="html=1;points=[];perimeter=orthogonalPerimeter;outlineConnect=0;targetShapes=umlLifeline;portConstraint=eastwest;newEdgeStyle={&quot;edgeStyle&quot;:&quot;elbowEdgeStyle&quot;,&quot;elbow&quot;:&quot;vertical&quot;,&quot;curved&quot;:0,&quot;rounded&quot;:0};" parent="aM9ryv3xv72pqoxQDRHE-1" vertex="1">
          <mxGeometry x="70" y="70" width="10" height="200" as="geometry" />
        </mxCell>
        <mxCell id="DEO4EP7q1WIu26WWa7IN-24" value="" style="html=1;points=[];perimeter=orthogonalPerimeter;outlineConnect=0;targetShapes=umlLifeline;portConstraint=eastwest;newEdgeStyle={&quot;edgeStyle&quot;:&quot;elbowEdgeStyle&quot;,&quot;elbow&quot;:&quot;vertical&quot;,&quot;curved&quot;:0,&quot;rounded&quot;:0};" vertex="1" parent="aM9ryv3xv72pqoxQDRHE-1">
          <mxGeometry x="70" y="320" width="10" height="250" as="geometry" />
        </mxCell>
        <mxCell id="aM9ryv3xv72pqoxQDRHE-5" value="Front-End" style="shape=umlLifeline;perimeter=lifelinePerimeter;whiteSpace=wrap;html=1;container=0;dropTarget=0;collapsible=0;recursiveResize=0;outlineConnect=0;portConstraint=eastwest;newEdgeStyle={&quot;edgeStyle&quot;:&quot;elbowEdgeStyle&quot;,&quot;elbow&quot;:&quot;vertical&quot;,&quot;curved&quot;:0,&quot;rounded&quot;:0};" parent="1" vertex="1">
          <mxGeometry x="247" y="40" width="150" height="900" as="geometry" />
        </mxCell>
        <mxCell id="aM9ryv3xv72pqoxQDRHE-6" value="" style="html=1;points=[];perimeter=orthogonalPerimeter;outlineConnect=0;targetShapes=umlLifeline;portConstraint=eastwest;newEdgeStyle={&quot;edgeStyle&quot;:&quot;elbowEdgeStyle&quot;,&quot;elbow&quot;:&quot;vertical&quot;,&quot;curved&quot;:0,&quot;rounded&quot;:0};" parent="aM9ryv3xv72pqoxQDRHE-5" vertex="1">
          <mxGeometry x="70" y="90" width="10" height="80" as="geometry" />
        </mxCell>
        <mxCell id="DEO4EP7q1WIu26WWa7IN-27" value="" style="html=1;points=[];perimeter=orthogonalPerimeter;outlineConnect=0;targetShapes=umlLifeline;portConstraint=eastwest;newEdgeStyle={&quot;edgeStyle&quot;:&quot;elbowEdgeStyle&quot;,&quot;elbow&quot;:&quot;vertical&quot;,&quot;curved&quot;:0,&quot;rounded&quot;:0};" vertex="1" parent="aM9ryv3xv72pqoxQDRHE-5">
          <mxGeometry x="70" y="416" width="10" height="220" as="geometry" />
        </mxCell>
        <mxCell id="DEO4EP7q1WIu26WWa7IN-1" value="Back-End" style="shape=umlLifeline;perimeter=lifelinePerimeter;whiteSpace=wrap;html=1;container=0;dropTarget=0;collapsible=0;recursiveResize=0;outlineConnect=0;portConstraint=eastwest;newEdgeStyle={&quot;edgeStyle&quot;:&quot;elbowEdgeStyle&quot;,&quot;elbow&quot;:&quot;vertical&quot;,&quot;curved&quot;:0,&quot;rounded&quot;:0};" vertex="1" parent="1">
          <mxGeometry x="463" y="40" width="150" height="900" as="geometry" />
        </mxCell>
        <mxCell id="DEO4EP7q1WIu26WWa7IN-2" value="" style="html=1;points=[];perimeter=orthogonalPerimeter;outlineConnect=0;targetShapes=umlLifeline;portConstraint=eastwest;newEdgeStyle={&quot;edgeStyle&quot;:&quot;elbowEdgeStyle&quot;,&quot;elbow&quot;:&quot;vertical&quot;,&quot;curved&quot;:0,&quot;rounded&quot;:0};" vertex="1" parent="DEO4EP7q1WIu26WWa7IN-1">
          <mxGeometry x="70" y="110" width="10" height="40" as="geometry" />
        </mxCell>
        <mxCell id="DEO4EP7q1WIu26WWa7IN-34" value="" style="html=1;points=[];perimeter=orthogonalPerimeter;outlineConnect=0;targetShapes=umlLifeline;portConstraint=eastwest;newEdgeStyle={&quot;edgeStyle&quot;:&quot;elbowEdgeStyle&quot;,&quot;elbow&quot;:&quot;vertical&quot;,&quot;curved&quot;:0,&quot;rounded&quot;:0};" vertex="1" parent="DEO4EP7q1WIu26WWa7IN-1">
          <mxGeometry x="70" y="440" width="10" height="320" as="geometry" />
        </mxCell>
        <mxCell id="DEO4EP7q1WIu26WWa7IN-46" value="" style="html=1;points=[];perimeter=orthogonalPerimeter;outlineConnect=0;targetShapes=umlLifeline;portConstraint=eastwest;newEdgeStyle={&quot;edgeStyle&quot;:&quot;elbowEdgeStyle&quot;,&quot;elbow&quot;:&quot;vertical&quot;,&quot;curved&quot;:0,&quot;rounded&quot;:0};" vertex="1" parent="DEO4EP7q1WIu26WWa7IN-1">
          <mxGeometry x="77" y="600" width="10" height="120" as="geometry" />
        </mxCell>
        <mxCell id="DEO4EP7q1WIu26WWa7IN-50" value="" style="html=1;points=[];perimeter=orthogonalPerimeter;outlineConnect=0;targetShapes=umlLifeline;portConstraint=eastwest;newEdgeStyle={&quot;edgeStyle&quot;:&quot;elbowEdgeStyle&quot;,&quot;elbow&quot;:&quot;vertical&quot;,&quot;curved&quot;:0,&quot;rounded&quot;:0};" vertex="1" parent="DEO4EP7q1WIu26WWa7IN-1">
          <mxGeometry x="77" y="450" width="10" height="100" as="geometry" />
        </mxCell>
        <mxCell id="DEO4EP7q1WIu26WWa7IN-3" value="ThridParty APP&lt;br&gt;(Authentication Server)" style="shape=umlLifeline;perimeter=lifelinePerimeter;whiteSpace=wrap;html=1;container=0;dropTarget=0;collapsible=0;recursiveResize=0;outlineConnect=0;portConstraint=eastwest;newEdgeStyle={&quot;edgeStyle&quot;:&quot;elbowEdgeStyle&quot;,&quot;elbow&quot;:&quot;vertical&quot;,&quot;curved&quot;:0,&quot;rounded&quot;:0};" vertex="1" parent="1">
          <mxGeometry x="680" y="40" width="150" height="900" as="geometry" />
        </mxCell>
        <mxCell id="DEO4EP7q1WIu26WWa7IN-4" value="" style="html=1;points=[];perimeter=orthogonalPerimeter;outlineConnect=0;targetShapes=umlLifeline;portConstraint=eastwest;newEdgeStyle={&quot;edgeStyle&quot;:&quot;elbowEdgeStyle&quot;,&quot;elbow&quot;:&quot;vertical&quot;,&quot;curved&quot;:0,&quot;rounded&quot;:0};" vertex="1" parent="DEO4EP7q1WIu26WWa7IN-3">
          <mxGeometry x="70" y="215" width="10" height="40" as="geometry" />
        </mxCell>
        <mxCell id="DEO4EP7q1WIu26WWa7IN-32" value="" style="html=1;points=[];perimeter=orthogonalPerimeter;outlineConnect=0;targetShapes=umlLifeline;portConstraint=eastwest;newEdgeStyle={&quot;edgeStyle&quot;:&quot;elbowEdgeStyle&quot;,&quot;elbow&quot;:&quot;vertical&quot;,&quot;curved&quot;:0,&quot;rounded&quot;:0};" vertex="1" parent="DEO4EP7q1WIu26WWa7IN-3">
          <mxGeometry x="70" y="340" width="10" height="40" as="geometry" />
        </mxCell>
        <mxCell id="DEO4EP7q1WIu26WWa7IN-35" value="" style="edgeStyle=elbowEdgeStyle;elbow=vertical;endArrow=classic;html=1;curved=0;rounded=0;endSize=8;startSize=8;" edge="1" parent="DEO4EP7q1WIu26WWa7IN-3" source="DEO4EP7q1WIu26WWa7IN-4" target="DEO4EP7q1WIu26WWa7IN-4">
          <mxGeometry width="50" height="50" relative="1" as="geometry">
            <mxPoint x="100" y="260" as="sourcePoint" />
            <mxPoint x="150" y="210" as="targetPoint" />
          </mxGeometry>
        </mxCell>
        <mxCell id="DEO4EP7q1WIu26WWa7IN-37" value="" style="edgeStyle=elbowEdgeStyle;elbow=vertical;endArrow=classic;html=1;curved=0;rounded=0;endSize=8;startSize=8;" edge="1" parent="DEO4EP7q1WIu26WWa7IN-3" source="DEO4EP7q1WIu26WWa7IN-32" target="DEO4EP7q1WIu26WWa7IN-32">
          <mxGeometry width="50" height="50" relative="1" as="geometry">
            <mxPoint x="90" y="350" as="sourcePoint" />
            <mxPoint x="90" y="370" as="targetPoint" />
            <Array as="points">
              <mxPoint x="110" y="360" />
            </Array>
          </mxGeometry>
        </mxCell>
        <mxCell id="DEO4EP7q1WIu26WWa7IN-41" value="" style="html=1;points=[];perimeter=orthogonalPerimeter;outlineConnect=0;targetShapes=umlLifeline;portConstraint=eastwest;newEdgeStyle={&quot;edgeStyle&quot;:&quot;elbowEdgeStyle&quot;,&quot;elbow&quot;:&quot;vertical&quot;,&quot;curved&quot;:0,&quot;rounded&quot;:0};" vertex="1" parent="DEO4EP7q1WIu26WWa7IN-3">
          <mxGeometry x="70" y="460" width="10" height="70" as="geometry" />
        </mxCell>
        <mxCell id="DEO4EP7q1WIu26WWa7IN-8" value="" style="endArrow=classic;html=1;rounded=0;" edge="1" parent="1" target="aM9ryv3xv72pqoxQDRHE-6">
          <mxGeometry relative="1" as="geometry">
            <mxPoint x="110" y="130" as="sourcePoint" />
            <mxPoint x="310" y="130" as="targetPoint" />
          </mxGeometry>
        </mxCell>
        <mxCell id="DEO4EP7q1WIu26WWa7IN-9" value="로그인 버튼 클릭&lt;br&gt;(ex. Kakao login)" style="edgeLabel;resizable=0;html=1;align=center;verticalAlign=middle;" connectable="0" vertex="1" parent="DEO4EP7q1WIu26WWa7IN-8">
          <mxGeometry relative="1" as="geometry">
            <mxPoint y="-20" as="offset" />
          </mxGeometry>
        </mxCell>
        <mxCell id="DEO4EP7q1WIu26WWa7IN-11" value="" style="endArrow=classic;html=1;rounded=0;" edge="1" parent="1" target="aM9ryv3xv72pqoxQDRHE-2">
          <mxGeometry relative="1" as="geometry">
            <mxPoint x="10" y="110" as="sourcePoint" />
            <mxPoint x="100" y="110" as="targetPoint" />
          </mxGeometry>
        </mxCell>
        <mxCell id="DEO4EP7q1WIu26WWa7IN-12" value="로그인 화면 진입" style="edgeLabel;resizable=0;html=1;align=center;verticalAlign=middle;" connectable="0" vertex="1" parent="DEO4EP7q1WIu26WWa7IN-11">
          <mxGeometry relative="1" as="geometry">
            <mxPoint x="-5" y="-10" as="offset" />
          </mxGeometry>
        </mxCell>
        <mxCell id="DEO4EP7q1WIu26WWa7IN-13" value="" style="endArrow=classic;html=1;rounded=0;" edge="1" parent="1">
          <mxGeometry relative="1" as="geometry">
            <mxPoint x="327" y="151" as="sourcePoint" />
            <mxPoint x="533" y="151" as="targetPoint" />
          </mxGeometry>
        </mxCell>
        <mxCell id="DEO4EP7q1WIu26WWa7IN-14" value="login 정보 요청" style="edgeLabel;resizable=0;html=1;align=center;verticalAlign=middle;" connectable="0" vertex="1" parent="DEO4EP7q1WIu26WWa7IN-13">
          <mxGeometry relative="1" as="geometry">
            <mxPoint y="-14" as="offset" />
          </mxGeometry>
        </mxCell>
        <mxCell id="DEO4EP7q1WIu26WWa7IN-16" value="" style="endArrow=classic;html=1;rounded=0;" edge="1" parent="1">
          <mxGeometry relative="1" as="geometry">
            <mxPoint x="533" y="190" as="sourcePoint" />
            <mxPoint x="327" y="190" as="targetPoint" />
          </mxGeometry>
        </mxCell>
        <mxCell id="DEO4EP7q1WIu26WWa7IN-17" value="client_id, redirect_uri 전달" style="edgeLabel;resizable=0;html=1;align=center;verticalAlign=middle;" connectable="0" vertex="1" parent="DEO4EP7q1WIu26WWa7IN-16">
          <mxGeometry relative="1" as="geometry">
            <mxPoint x="10" y="10" as="offset" />
          </mxGeometry>
        </mxCell>
        <mxCell id="DEO4EP7q1WIu26WWa7IN-18" value="" style="endArrow=classic;html=1;rounded=0;" edge="1" parent="1" source="aM9ryv3xv72pqoxQDRHE-5">
          <mxGeometry relative="1" as="geometry">
            <mxPoint x="327" y="255" as="sourcePoint" />
            <mxPoint x="750" y="255" as="targetPoint" />
          </mxGeometry>
        </mxCell>
        <mxCell id="DEO4EP7q1WIu26WWa7IN-19" value="로그인 화면 호출" style="edgeLabel;resizable=0;html=1;align=center;verticalAlign=middle;" connectable="0" vertex="1" parent="DEO4EP7q1WIu26WWa7IN-18">
          <mxGeometry relative="1" as="geometry">
            <mxPoint y="-13" as="offset" />
          </mxGeometry>
        </mxCell>
        <mxCell id="DEO4EP7q1WIu26WWa7IN-21" value="&lt;div style=&quot;&quot;&gt;Method : GET&lt;/div&gt;&lt;div style=&quot;&quot;&gt;URL : https://kauth.kakao.com/oauth/authorize&lt;br&gt;URL Params : client_id, redirect_uri, response_type&lt;/div&gt;" style="edgeLabel;resizable=0;html=1;align=left;verticalAlign=middle;" connectable="0" vertex="1" parent="1">
          <mxGeometry x="591" y="225" as="geometry" />
        </mxCell>
        <mxCell id="DEO4EP7q1WIu26WWa7IN-22" value="" style="endArrow=classic;html=1;rounded=0;" edge="1" parent="1">
          <mxGeometry relative="1" as="geometry">
            <mxPoint x="750" y="295" as="sourcePoint" />
            <mxPoint x="110" y="295" as="targetPoint" />
          </mxGeometry>
        </mxCell>
        <mxCell id="DEO4EP7q1WIu26WWa7IN-23" value="로그인 화면&amp;nbsp;" style="edgeLabel;resizable=0;html=1;align=center;verticalAlign=middle;" connectable="0" vertex="1" parent="DEO4EP7q1WIu26WWa7IN-22">
          <mxGeometry relative="1" as="geometry">
            <mxPoint y="-13" as="offset" />
          </mxGeometry>
        </mxCell>
        <mxCell id="DEO4EP7q1WIu26WWa7IN-25" value="" style="endArrow=classic;html=1;rounded=0;" edge="1" parent="1" target="DEO4EP7q1WIu26WWa7IN-3">
          <mxGeometry relative="1" as="geometry">
            <mxPoint x="110" y="380" as="sourcePoint" />
            <mxPoint x="317" y="380" as="targetPoint" />
          </mxGeometry>
        </mxCell>
        <mxCell id="DEO4EP7q1WIu26WWa7IN-26" value="로그인 및 동의 항목 인가 확인&lt;br&gt;&amp;nbsp;계속하기 버튼 클릭" style="edgeLabel;resizable=0;html=1;align=center;verticalAlign=middle;" connectable="0" vertex="1" parent="DEO4EP7q1WIu26WWa7IN-25">
          <mxGeometry relative="1" as="geometry">
            <mxPoint y="-20" as="offset" />
          </mxGeometry>
        </mxCell>
        <mxCell id="DEO4EP7q1WIu26WWa7IN-28" value="" style="endArrow=classic;html=1;rounded=0;" edge="1" parent="1">
          <mxGeometry relative="1" as="geometry">
            <mxPoint x="327" y="480" as="sourcePoint" />
            <mxPoint x="537.5" y="480" as="targetPoint" />
          </mxGeometry>
        </mxCell>
        <mxCell id="DEO4EP7q1WIu26WWa7IN-29" value="code(인가 코드) 전달" style="edgeLabel;resizable=0;html=1;align=center;verticalAlign=middle;" connectable="0" vertex="1" parent="DEO4EP7q1WIu26WWa7IN-28">
          <mxGeometry relative="1" as="geometry">
            <mxPoint y="-14" as="offset" />
          </mxGeometry>
        </mxCell>
        <mxCell id="DEO4EP7q1WIu26WWa7IN-30" value="" style="endArrow=classic;html=1;rounded=0;" edge="1" parent="1" target="aM9ryv3xv72pqoxQDRHE-5">
          <mxGeometry relative="1" as="geometry">
            <mxPoint x="750" y="420" as="sourcePoint" />
            <mxPoint x="330" y="420" as="targetPoint" />
          </mxGeometry>
        </mxCell>
        <mxCell id="DEO4EP7q1WIu26WWa7IN-31" value="code(인가 코드) 전달&amp;nbsp;" style="edgeLabel;resizable=0;html=1;align=center;verticalAlign=middle;" connectable="0" vertex="1" parent="DEO4EP7q1WIu26WWa7IN-30">
          <mxGeometry relative="1" as="geometry">
            <mxPoint y="-13" as="offset" />
          </mxGeometry>
        </mxCell>
        <mxCell id="DEO4EP7q1WIu26WWa7IN-33" value="&lt;div style=&quot;&quot;&gt;Method : GET&lt;/div&gt;&lt;div style=&quot;&quot;&gt;URL :&amp;nbsp; redirect_uri&lt;br&gt;URL Params : code&lt;/div&gt;" style="edgeLabel;resizable=0;html=1;align=left;verticalAlign=middle;" connectable="0" vertex="1" parent="1">
          <mxGeometry x="613" y="410" as="geometry" />
        </mxCell>
        <mxCell id="DEO4EP7q1WIu26WWa7IN-36" value="사용자 인증&lt;br&gt;앱 설정 확인" style="edgeLabel;resizable=0;html=1;align=center;verticalAlign=middle;" connectable="0" vertex="1" parent="1">
          <mxGeometry x="804" y="280" as="geometry" />
        </mxCell>
        <mxCell id="DEO4EP7q1WIu26WWa7IN-38" value="사용자 확인&lt;br&gt;동의 항목 확인" style="edgeLabel;resizable=0;html=1;align=center;verticalAlign=middle;" connectable="0" vertex="1" parent="1">
          <mxGeometry x="840" y="450" as="geometry">
            <mxPoint x="-29" y="-39" as="offset" />
          </mxGeometry>
        </mxCell>
        <mxCell id="DEO4EP7q1WIu26WWa7IN-39" value="" style="endArrow=classic;html=1;rounded=0;" edge="1" parent="1" source="DEO4EP7q1WIu26WWa7IN-50">
          <mxGeometry relative="1" as="geometry">
            <mxPoint x="560" y="500" as="sourcePoint" />
            <mxPoint x="750.5" y="500" as="targetPoint" />
          </mxGeometry>
        </mxCell>
        <mxCell id="DEO4EP7q1WIu26WWa7IN-40" value="토큰 발급 요청" style="edgeLabel;resizable=0;html=1;align=center;verticalAlign=middle;" connectable="0" vertex="1" parent="DEO4EP7q1WIu26WWa7IN-39">
          <mxGeometry relative="1" as="geometry">
            <mxPoint x="-2" y="-14" as="offset" />
          </mxGeometry>
        </mxCell>
        <mxCell id="DEO4EP7q1WIu26WWa7IN-42" value="&lt;div style=&quot;&quot;&gt;Method : POST&lt;/div&gt;&lt;div style=&quot;&quot;&gt;URL : https://kauth.kakao.com/oauth/token&lt;br&gt;URL Params : grant_type, client_id, redirect_uri, code&lt;/div&gt;" style="edgeLabel;resizable=0;html=1;align=left;verticalAlign=middle;" connectable="0" vertex="1" parent="1">
          <mxGeometry x="690" y="470" as="geometry" />
        </mxCell>
        <mxCell id="DEO4EP7q1WIu26WWa7IN-43" value="" style="endArrow=classic;html=1;rounded=0;" edge="1" parent="1" target="DEO4EP7q1WIu26WWa7IN-50">
          <mxGeometry relative="1" as="geometry">
            <mxPoint x="748" y="570" as="sourcePoint" />
            <mxPoint x="560" y="570" as="targetPoint" />
          </mxGeometry>
        </mxCell>
        <mxCell id="DEO4EP7q1WIu26WWa7IN-44" value="토큰 발급" style="edgeLabel;resizable=0;html=1;align=center;verticalAlign=middle;" connectable="0" vertex="1" parent="DEO4EP7q1WIu26WWa7IN-43">
          <mxGeometry relative="1" as="geometry">
            <mxPoint y="-13" as="offset" />
          </mxGeometry>
        </mxCell>
        <mxCell id="DEO4EP7q1WIu26WWa7IN-45" value="응답 항목&lt;br&gt;token_type, access_token, expires_in, refresh_token, refresh_token_expires_in" style="edgeLabel;resizable=0;html=1;align=left;verticalAlign=middle;" connectable="0" vertex="1" parent="1">
          <mxGeometry x="680" y="540" as="geometry" />
        </mxCell>
        <mxCell id="DEO4EP7q1WIu26WWa7IN-47" value="" style="endArrow=classic;html=1;rounded=0;" edge="1" parent="1" source="DEO4EP7q1WIu26WWa7IN-46">
          <mxGeometry relative="1" as="geometry">
            <mxPoint x="550" y="660" as="sourcePoint" />
            <mxPoint x="757.5" y="660" as="targetPoint" />
          </mxGeometry>
        </mxCell>
        <mxCell id="DEO4EP7q1WIu26WWa7IN-48" value="사용자 정보 요청" style="edgeLabel;resizable=0;html=1;align=center;verticalAlign=middle;" connectable="0" vertex="1" parent="DEO4EP7q1WIu26WWa7IN-47">
          <mxGeometry relative="1" as="geometry">
            <mxPoint x="-2" y="-14" as="offset" />
          </mxGeometry>
        </mxCell>
        <mxCell id="DEO4EP7q1WIu26WWa7IN-49" value="&lt;div style=&quot;&quot;&gt;Method : GET/ POST&lt;/div&gt;&lt;div style=&quot;&quot;&gt;URL :&amp;nbsp;https://kapi.kakao.com/v2/user/me&lt;br&gt;URL Params : grant_type, client_id, redirect_uri, code&lt;/div&gt;" style="edgeLabel;resizable=0;html=1;align=left;verticalAlign=middle;" connectable="0" vertex="1" parent="1">
          <mxGeometry x="697" y="630" as="geometry" />
        </mxCell>
      </root>
    </mxGraphModel>
  </diagram>
</mxfile>
